<?xml version="1.0" encoding="UTF-8"?>
<svg id="pictograms" xmlns="http://www.w3.org/2000/svg" width="36" height="36" version="1.1" viewBox="0 0 36 36">
  <!-- Generator: Adobe Illustrator 29.6.1, SVG Export Plug-In . SVG Version: 2.1.1 Build 9)  -->
  <defs>
    <style>
      .st0 {
        fill: #014a5c;
      }
    </style>
  </defs>
  <path class="st0" d="M33.3,14.8l-.2-.5-.5.3c-5.5,3.3-9.7.1-9.8,0l-.6.8c.5.4,1.1.7,1.9,1,0,0-.2,0-.2,0h-.2c-1.1.4-6.2,2-14.2.4.2,0,.4,0,.6,0,7.2,0,13-2.6,14.5-3.3,1.1-.5,1.6-1.2,1.5-2,0-.5-.5-1.3-2.7-1.6-.8,0-1.6,0-2.4.1.9-.3,2-.5,3.1-.4,2.3,0,4,.8,5.1,1.7,0,.4.2.7.4,1,.5.8,1.2,1.4,2,1.6l1.1.2-.5-1c0,0,0-.2-.2-.3.3,0,.6,0,.9-.1.7-.2,1.5-.8,1.6-2.5,0-.6-.1-1.3-.5-1.8-.5-.8-1.3-1.2-2.2-1.2-1.4,0-2.6,1.3-2.8,2.9-1.2-.7-2.8-1.3-5-1.4-3,0-6.1,1.2-7.1,2.9H2.5v1h14.1c0,.4.2.8.7.9.8.3,2-.2,2.4-1.2l.3-.7h-.6c1-.4,2.4-.7,3.9-.6,1.4.2,1.8.6,1.8.8,0,.2-.2.6-1,.9-1.9.9-11.8,5.3-22,1.9l-.3.9,14.1,6.3c-.8.1-1.9,0-3.7-1l-5.9-3-.4.9,5.9,3c1.6.9,2.8,1.1,3.7,1.1s1.5-.2,1.8-.4l11.2,5.1c-.7.2-1.9.2-3.5-.7-3.3-1.7-7.5-3.9-7.5-3.9l-.5.9s4.2,2.1,7.5,3.9c1.3.7,2.3.9,3.1.9,1.5,0,2.3-.7,2.3-.8l.5-.5-8.5-3.9c.4,0,.8-.1,1.2-.2l7.1,1.3h0c.1.8.8,1.6,1.6,1.6s.1,0,.2,0c.6,0,1.1-.5,1.5-1.2,2-3.8.4-8.7-.4-10.3h0ZM32.6,11.8c-.6.3-1.4,0-1.6,0-.3-.3-.6-.6-.9-.9,0-.1,0-.2,0-.3,0-.3,0-.5.1-.8.8.9,2.1,1.4,3.1,1.5-.1.2-.3.4-.6.5ZM31.8,8.2c.5,0,1,.3,1.4.8.2.3.3.8.3,1.2,0,0,0,0,0,0h0c-.9,0-2.3-.7-2.8-1.5.3-.3.7-.5,1.1-.5h0ZM23.9,17.5c3.4.4,4.6,1.3,4.6,2,0,.9-1.7,2.1-5.2,2.9l-4.5-.8c0,0,.2-.1.2-.1,1.1-.7,2.1-1.4,3-1.7,1,.2,1.9.2,2.4,0l1.4-.4-1.4-.5c-.9-.3-1.7-.3-2.5-.1-.3-.1-.6-.3-.8-.5,1.2-.2,2.2-.5,2.7-.7h0ZM19.9,18.4c.2.3.5.6.8.8-.8.4-1.5.9-2.3,1.4-.4.3-.8.5-1.3.8l-7.7-3.5c4.4.9,7.9.8,10.5.5h0ZM32.8,24.7c-.2.5-.5.6-.7.7-.3,0-.5-.2-.6-.4h.6c0,.1,0-.4,0-.4.1-.6,0-1.1-.2-1.5-.2-.2-.5-.3-.7-.3-.2,0-.5.1-.7.4-.1.2-.2.4-.3.6l-4.8-.9c2.4-.8,3.9-2,3.9-3.3,0-.7-.4-1.7-2.6-2.5,1.7.1,3.7-.2,5.8-1.3.7,1.8,1.8,5.8.2,8.9h0Z"/>
</svg>