<?xml version="1.0" encoding="UTF-8"?>
<svg id="Layer_1" xmlns="http://www.w3.org/2000/svg" width="36" height="36" version="1.1" viewBox="0 0 36 36">
  <!-- Generator: Adobe Illustrator 29.6.1, SVG Export Plug-In . SVG Version: 2.1.1 Build 9)  -->
  <defs>
    <style>
      .st0 {
        fill: #014a5c;
      }

      .st1 {
        fill: none;
        stroke: #dadada;
        stroke-miterlimit: 10;
        stroke-width: .1px;
      }

      .st2 {
        display: none;
      }
    </style>
  </defs>
  <g id="griglia" class="st2">
    <g>
      <line class="st1" y2="36"/>
      <line class="st1" x1="1" x2="1" y2="36"/>
      <line class="st1" x1="2" x2="2" y2="36"/>
      <line class="st1" x1="3" x2="3" y2="36"/>
      <line class="st1" x1="4" x2="4" y2="36"/>
      <line class="st1" x1="5" x2="5" y2="36"/>
      <line class="st1" x1="6" x2="6" y2="36"/>
      <line class="st1" x1="7" x2="7" y2="36"/>
      <line class="st1" x1="8" x2="8" y2="36"/>
      <line class="st1" x1="9" x2="9" y2="36"/>
      <line class="st1" x1="10" x2="10" y2="36"/>
      <line class="st1" x1="11" x2="11" y2="36"/>
      <line class="st1" x1="12" x2="12" y2="36"/>
      <line class="st1" x1="13" x2="13" y2="36"/>
      <line class="st1" x1="14" x2="14" y2="36"/>
      <line class="st1" x1="15" x2="15" y2="36"/>
      <line class="st1" x1="16" x2="16" y2="36"/>
      <line class="st1" x1="17" x2="17" y2="36"/>
      <line class="st1" x1="18" x2="18" y2="36"/>
      <line class="st1" x1="19" x2="19" y2="36"/>
      <line class="st1" x1="20" x2="20" y2="36"/>
      <line class="st1" x1="21" x2="21" y2="36"/>
      <line class="st1" x1="22" x2="22" y2="36"/>
      <line class="st1" x1="23" x2="23" y2="36"/>
      <line class="st1" x1="24" x2="24" y2="36"/>
      <line class="st1" x1="25" x2="25" y2="36"/>
      <line class="st1" x1="26" x2="26" y2="36"/>
      <line class="st1" x1="27" x2="27" y2="36"/>
      <line class="st1" x1="28" x2="28" y2="36"/>
      <line class="st1" x1="29" x2="29" y2="36"/>
      <line class="st1" x1="30" x2="30" y2="36"/>
      <line class="st1" x1="31" x2="31" y2="36"/>
      <line class="st1" x1="32" x2="32" y2="36"/>
      <line class="st1" x1="33" x2="33" y2="36"/>
      <line class="st1" x1="34" x2="34" y2="36"/>
      <line class="st1" x1="35" x2="35" y2="36"/>
      <line class="st1" x1="36" x2="36" y2="36"/>
    </g>
    <g>
      <line class="st1" x1="36"/>
      <line class="st1" x1="36" y1="1" y2="1"/>
      <line class="st1" x1="36" y1="2" y2="2"/>
      <line class="st1" x1="36" y1="3" y2="3"/>
      <line class="st1" x1="36" y1="4" y2="4"/>
      <line class="st1" x1="36" y1="5" y2="5"/>
      <line class="st1" x1="36" y1="6" y2="6"/>
      <line class="st1" x1="36" y1="7" y2="7"/>
      <line class="st1" x1="36" y1="8" y2="8"/>
      <line class="st1" x1="36" y1="9" y2="9"/>
      <line class="st1" x1="36" y1="10" y2="10"/>
      <line class="st1" x1="36" y1="11" y2="11"/>
      <line class="st1" x1="36" y1="12" y2="12"/>
      <line class="st1" x1="36" y1="13" y2="13"/>
      <line class="st1" x1="36" y1="14" y2="14"/>
      <line class="st1" x1="36" y1="15" y2="15"/>
      <line class="st1" x1="36" y1="16" y2="16"/>
      <line class="st1" x1="36" y1="17" y2="17"/>
      <line class="st1" x1="36" y1="18" y2="18"/>
      <line class="st1" x1="36" y1="19" y2="19"/>
      <line class="st1" x1="36" y1="20" y2="20"/>
      <line class="st1" x1="36" y1="21" y2="21"/>
      <line class="st1" x1="36" y1="22" y2="22"/>
      <line class="st1" x1="36" y1="23" y2="23"/>
      <line class="st1" x1="36" y1="24" y2="24"/>
      <line class="st1" x1="36" y1="25" y2="25"/>
      <line class="st1" x1="36" y1="26" y2="26"/>
      <line class="st1" x1="36" y1="27" y2="27"/>
      <line class="st1" x1="36" y1="28" y2="28"/>
      <line class="st1" x1="36" y1="29" y2="29"/>
      <line class="st1" x1="36" y1="30" y2="30"/>
      <line class="st1" x1="36" y1="31" y2="31"/>
      <line class="st1" x1="36" y1="32" y2="32"/>
      <line class="st1" x1="36" y1="33" y2="33"/>
      <line class="st1" x1="36" y1="34" y2="34"/>
      <line class="st1" x1="36" y1="35" y2="35"/>
      <line class="st1" x1="36" y1="36" y2="36"/>
    </g>
  </g>
  <g id="pictograms">
    <path class="st0" d="M32.5,28.6s-.1.4-1,.9-3.3.6-5.9.6c.3-.6.4-1.1.4-1.1l-1-.2c0,0-.1.7-.6,1.3h-3.3c-2-8.3-3.9-14.1-5.9-18.5.3,0,.7,0,1.1,0,.7,0,.9-.8,1.2-1.8.3-.9.7-2.3,1.3-2.4,2.6-.3,5.2-.6,5.3-.6v-1h-8.8v-.5h-3.1c0-.8-.3-1.2-.5-1.5-.4-.4-.9-.6-1.4-.6-.8,0-1.3.4-1.5.7-.4.7-.3,1.6,0,2.2l.9-.4c-.2-.4-.3-1,0-1.3,0,0,.2-.2.6-.2s.4,0,.7.3c.2.3.3.8.2,1.4,0,.2-.1.3-.2.4-1,.8-3.1.3-3.1.3-.6.3-.3,3-.2,3.6.3,1.2.9,1.5,1.4,1.5.6,0,1.1-.1,1.6-.3.5,1.2.3,1.9.3,1.9h0c-2,3.7-1.6,5.6-.7,9,0,.3.1.6.2.9-.7,2.3-1.1,4.9-.6,6.9H3v1c0,0,0,0,0,0h0c4.9.5,13.6,1.5,17.4,1.6h.3c2.2,0,3.5-.8,4.3-1.6,4.1,0,6.2-.3,7.1-.8,1.2-.7,1.4-1.4,1.5-1.5l-1-.2h0ZM17.9,7c-.6.6-1,1.7-1.2,2.7-.1.4-.2.9-.4,1.1-.7,0-1.2-.1-1.5-.2-.3-.5-.5-1-.8-1.5.9-.6,1.7-1.2,2.7-1.3.2,0,.3,0,.4,0v-.5s0-.3,0-.3h.9ZM11.6,7.2c.3-.2.4-.4.6-.7h3.2v.4c-1.6.2-3.9.7-5.4,1.5-.2-.2-.4-.5-.6-.7h0c.8,0,1.6-.1,2.2-.5h0ZM9.1,10.8s-.1,0-.2-.1c-.3-.4-.4-1.5-.4-2.4.8.9,1.3,1.6,1.7,2.3-.4.1-.7.2-1.1.2h0ZM10.5,9.2c.8-.4,1.8-.7,2.7-.9-.3.2-.6.5-.9.7-.5.4-.9.8-1.4,1.1-.1-.3-.3-.5-.5-.8ZM11.9,13.8c0,0,.4-1.1-.4-2.8.5-.3.9-.7,1.4-1,0,0,0,.1,0,.2.2.5.6.9,1.1,1.1,2,3.9,3.7,9.1,5.6,16.3,0,0,0,0,0,0-.9-1-1.6-1.8-1.4-3.6.1-1.5-3.4-5.4-4.5-6.5h-.8c0,.3-.9,1.9-1.7,4.1-.7-2.9-1-4.5.8-7.7h0ZM10.8,30.1c-.4-1.3-.2-3,.1-4.7.1.5.2,1.1.3,1.7.2,1.2-.1,2.3-.5,3ZM12.3,26.9c-.2-1.4-.5-2.6-.8-3.6.6-2,1.4-3.7,1.8-4.6,1.9,2.1,3.8,4.6,3.7,5.2-.2,2.3.8,3.4,1.7,4.4.5.6,1,1.1,1.4,1.9h-8.2c.3-.9.6-2,.4-3.2h0ZM20.5,31.7c-1.8,0-4.7-.3-7.8-.6h10.7c-.7.4-1.6.6-2.9.6Z"/>
  </g>
</svg>