<?xml version="1.0" encoding="UTF-8"?>
<svg id="pictograms" xmlns="http://www.w3.org/2000/svg" width="36" height="36" version="1.1" viewBox="0 0 36 36">
  <!-- Generator: Adobe Illustrator 29.6.1, SVG Export Plug-In . SVG Version: 2.1.1 Build 9)  -->
  <defs>
    <style>
      .st0 {
        fill: #014a5c;
      }
    </style>
  </defs>
  <path class="st0" d="M34.8,25.8c0-.1-1.3-2.4-5.1-4.1-3-4.2-8.5-7.4-14.1-9.3-.1-.8-.5-1.5-1.1-2.1-.7-.7-1.7-1.1-2.6-1h-.1c0-2.5-1.9-4.6-4.4-4.8-1.3-.1-2.5.3-3.5,1.1s-1.6,2-1.7,3.3c-.1,1.1.2,2.3.9,3.2l.8-.6c-.5-.7-.8-1.7-.7-2.6,0-1,.6-1.9,1.3-2.6.8-.7,1.8-1,2.8-.9,2.1.2,3.6,1.9,3.5,4-.7.2-1.2.5-1.6,1-.9,1.1-.7,2.6-.7,2.6,0,.1.1.3.2.4,0,0,.2,0,.2,0s.1,0,.2,0c1.4-.6,2.3-1.6,2.6-3.2,0,0,.2,0,.2,0,.7,0,1.4.2,1.9.7.3.3.5.6.7,1-.6-.2-1.1-.3-1.6-.4l-.2,1c1.3.3,2.6.7,3.9,1.2-1.1.1-2,1.1-2,2.2s0,.5,0,.7c-2.2-1.2-4.6-2.3-6.2-2.7l-.4.9c.8.4,1.4,1,2,1.9-3.3-1.5-6.1-2.3-8.3-2.8l-.2,1c2.4.6,5.6,1.5,9.3,3.3.1.2.2.5.3.7v.2c0,0,.2,0,.2,0,1.1.6,2,1.3,2.8,2-2.5-1.4-5.5-2.8-8.1-3.5l-.2,1c4.1,1.1,9.3,4,11.5,5.6l.7-.7-.2-.2c-.8-.9-1.9-2-3.1-3.1,1.8,1.1,3.7,2.4,5.6,4,3.8,3.1,8.1,4.3,10.8,4.4,0,0,0,.1,0,.2-1.2.8-2.7,1.3-3.3,1.5-.7-.7-3.3-3-5.7-4.8h0l-.6.8h0c1.5,1.2,2.7,3.3,3.4,4.6l.2.4.9-.5-.2-.4c-.2-.3-.4-.6-.6-1,1.2,1.1,2.1,1.9,2.1,1.9l.2.2h.3c.1-.1,2.4-.7,4.1-1.9h.2v-.4c0-.2,0-.3,0-.5.5,0,1-.1,1.2-.2h.2c.5-.7,1.2-2,1.3-2.2v-.2c.1,0,0-.2,0-.2ZM9.4,12.2c0-.3.2-.7.5-1.1.2-.2.4-.4.7-.5-.2.7-.6,1.2-1.2,1.6ZM19.2,17.6c0-.3.2-.6.5-.9.3-.2.6-.3,1-.3.7,0,1.2.7,1.2,1.3,0,.1-.3.5-.8.7-.5.2-1,.1-1.8-.1-.1-.2-.2-.5-.1-.8h0ZM20.3,15.4c-.4,0-.8.2-1.1.4h0c0-.5-.2-.9-.5-1.2.6.3,1.2.5,1.7.8ZM16.8,14.8c.7,0,1.3.6,1.3,1.2h0c-.1.2-.4.4-.7.6-.5.2-1.1.1-1.9-.2,0-.1,0-.2,0-.4,0-.7.6-1.2,1.3-1.2h0ZM20.9,23.4c-3.3-2.7-6.4-4.6-9.3-6-.3-.6-.6-1.1-.9-1.6,1.7.8,3.7,1.8,5.6,3l.5-.9c-.2-.1-.4-.2-.5-.3.1,0,.3,0,.4,0,.4,0,.7,0,1-.2.2,0,.3-.1.4-.2,0,0,0,.2,0,.3,0,.5,0,1,.3,1.4,0,0,0,0-.1,0l-.5-.3-.5.9.5.3c1.4.9,2.5,1.3,3.4,1.3s.5,0,.8,0c1.1-.3,1.7-1.3,1.5-2.5l-1,.2c.1.5-.1,1.1-.8,1.3-.4.1-1.1.1-2.3-.5h0c.8.2,1.4.2,2,0,1-.4,1.3-1.4,1.3-1.4h0c0-.5,0-.9-.2-1.3,4.5,2.8,7.9,6.6,8.4,10.9-2.4-.2-6.4-1.2-10.1-4.2h0ZM32.8,27.5c-.2,0-.5.1-.8.1-.2-1.5-.6-3-1.3-4.3,1.9,1.1,2.8,2.2,3.1,2.7-.2.4-.7,1.1-1,1.5Z"/>
</svg>