<?xml version="1.0" encoding="UTF-8"?>
<svg id="pictograms" xmlns="http://www.w3.org/2000/svg" width="36" height="36" version="1.1" viewBox="0 0 36 36">
  <!-- Generator: Adobe Illustrator 29.6.1, SVG Export Plug-In . SVG Version: 2.1.1 Build 9)  -->
  <defs>
    <style>
      .st0 {
        fill: #014a5c;
      }
    </style>
  </defs>
  <path class="st0" d="M32.7,26.4s-.8,1.1-3.3,1.1h-2.8c-1.3-.2-1.8-.9-2-1.2,1.5-2.6,1.9-4.6,1.9-6.1,1.6-1.7,3.3-3.4,4.6-4.6.4,0,.8-.2,1.1-.4.8-.4,1.1-1.2,1-2l-.2-.9-.7.7c0,.1-.8.8-1.7,1.7-.7,0-1.4,0-1.8-.4-.6-.6-1.2-2-1.4-2.5l-.2-.5s0,0,.1,0l.5-.6-.7-.3c-.5-.2-1-.3-1.5-.5,0-.3.1-.6.3-.9.3-.4.7-.6,1.2-.6.1,0,.2,0,.2.1.1.2.1.4,0,.7l.9.4c.2-.5.1-1.1-.1-1.5-.2-.3-.6-.6-1-.6-.9,0-1.6.3-2.1,1-.2.4-.4.8-.4,1.2-2-.3-3.7-.2-5.1.6-1.1.5-2,1.4-2.6,2.5-.6.4-1.1.8-1.6,1.3l-10.4,10.7c-1.1-.5-1.8-.9-1.8-.9l-.5.9c.2.1,6,3.7,13.2,3.9h13.5c3.1,0,4.1-1.5,4.2-1.6l-.8-.5h0ZM23.6,26v.2c-.1,0,0,.2,0,.2,0,0,.2.6.8,1.1h-1.9c1-1.9,1.5-3.4,1.5-4.8.5-.5,1-1,1.5-1.5-.1,1.3-.6,2.8-1.8,4.8h0ZM28.1,15c.4.3.9.5,1.5.6-1,1-2.2,2.2-3.3,3.4-.3-1.4-1-2.1-1-2.1l-.7.7c0,0,.7.8.9,2.3-.5.6-1.1,1.1-1.6,1.6-.2-1.3-.8-2.4-1.3-3.2,1.8-1.6,3.4-3.3,4.4-5.1.3.6.7,1.4,1.2,1.9h0ZM21.6,17c-.4-.6-.3-1.2,0-1.6.3.9,1,1.2,1.1,1.2-.3.3-.6.6-.9.8,0-.1-.2-.2-.2-.4ZM20,11.1c1.3-.6,2.9-.8,4.7-.4,0,.1,0,.3.1.4.2.4.7.7,1.1.7h0c.1,0,.3,0,.4,0h0c-.6,1.5-1.8,3-3.1,4.4,0,0-.9-1,0-3.8,0-.1,0-.3.1-.4,0-.2,0-.5-.3-.6-1-.3-2.5-.2-4,.4.3-.2.6-.4,1-.6h0ZM15.4,15.4c.2,0,.4,0,.7,0s.5,0,.6-.1c.2-.1.4-.3.5-.6.1-.5.3-.9.5-1.3,1.6-.9,3.4-1.3,4.6-1.2-.1.4-.3,1-.3,1.7-1,.4-1.4,1.4-1.5,2-2.3,1-3.3,2.9-4.2,4.6-.2.3-.4.7-.5,1-1.8.9-3.4,1.4-4.9,1.6h-.3s-.1.3-.1.3c-.1.4-.1.9,0,1.4-.4,0-.9,0-1.3,0-1.2,0-2-.2-2.6-.3l8.9-9.1h0ZM21.1,18c-1.2,1-2.5,1.9-3.8,2.6.8-1.5,1.6-2.8,3.2-3.7,0,.2.2.4.3.6,0,.1.2.3.3.5h0ZM11.3,24c1-.2,2.1-.5,3.3-1-.7.8-1.7,1.4-3.2,1.6,0-.2-.1-.5,0-.6ZM6.8,25.5c.6,0,1.3.1,2.2.2.6,0,1.2,0,1.8,0,.2.4.5.9.8,1.3-1.8-.4-3.4-.9-4.7-1.5ZM13.2,27.3c-.6-.5-1.1-1.1-1.4-1.7,2.5-.5,3.7-1.8,4.6-3.4,1.8-.9,3.6-2,5.3-3.4.6.9,1.1,2,1.2,3.5-1.3,1.3-2.2,2.3-2.6,2.6-1.4,1.5-3.3,2.6-4.4,2.5h0c-.9,0-1.8-.1-2.7-.3h0ZM21.1,25.7c.2-.2.9-.9,1.7-1.7-.2,1-.7,2.2-1.5,3.6h-2.5c.9-.5,1.6-1.2,2.3-1.9h0Z"/>
</svg>