<?xml version="1.0" encoding="UTF-8"?>
<svg id="pictograms" xmlns="http://www.w3.org/2000/svg" width="36" height="36" version="1.1" viewBox="0 0 36 36">
  <!-- Generator: Adobe Illustrator 29.6.1, SVG Export Plug-In . SVG Version: 2.1.1 Build 9)  -->
  <defs>
    <style>
      .st0 {
        fill: #014a5c;
      }
    </style>
  </defs>
  <path class="st0" d="M30.3,25.8v.6c0,0,5.1,0,5.1,0l-.3-.7c-.2-.4-.7-1.2-1.5-1.2h-.7l-5.5-3.5h0c-.4-.9-1.6-1.9-3-2.9-.8-2.3-3.5-5-7-5.8v.3c-.1,0-.2-.1-.2-.2-.5-.4-1.6-.5-2.8-.3,0-.4.1-1,.4-1.4.2-.2.4-.3.7-.3.6,0,1.1.6,1.1,1.4h1c0-1.3-.9-2.4-2.1-2.4s-1.1.2-1.4.6c-.6.7-.7,1.7-.7,2.2,0,0-.1,0-.2,0-1.2.4-2.3,1.4-2.6,2.7-.2.5-.2,1.1,0,1.6-1.4,1.7-1.7,2.6-2,3.5-.2.7-.4,1.5-1.2,2.7-.2.3-.4.6-.7.9-1.2-.6-2-1.7-2-1.7l-.6-.9-.3,1.1c-.2.8-1,2.9-2.3,3.2v1c2.4,0,4.1-.5,5.4-1.5.7.2,1.5.2,2.3-.1,1.6-.7,3-2.5,4.2-4.1.1-.1.2-.3.3-.4,0,0,.1,0,.2.1-.9,1-1.3,2-1.2,2.9-1.9,1.2-1.8,2.5-1.8,2.6v.5h4.9l.2-1s-1.5-.5-2.1-1.6c.2,0,.4-.2.7-.3,1.2-.5,2.4-1.1,3.5-1.7.5.7,1.3.7,2.1.8h0c-.5.2-1.3.4-1.5.5-.6.2-.9.6-.9,1.3v.9c0,.7,1,1.3,2.2,1.3h2.1c1.1,0,2.2-.6,2.2-1.3v-.9c0-.6-.3-1.1-.9-1.3-.1,0-.4-.1-.6-.2s-.5-.1-.7-.2c0-.1,0-.4-.2-.7-.1-.1-.3-.3-.6-.3-.2-.5-.6-.9-1.3-1,.8-.6,1.2-1.3,1.2-2s-.1-.5-.3-.8c-.5-.5-1.5-.7-2.6-.8,0-.1.1-.2.2-.4,1.2,0,2.6.6,3.9,1.2l-.4.6,2,1.2h0l7.8,5c-.5.1-1,.4-1.1,1h0ZM3.1,25.3c.5-.6.9-1.4,1.1-2,.3.4.8.8,1.3,1.1-.6.4-1.4.7-2.4.8ZM20.8,23.5h.3c.2.1.6.3,1,.4.2,0,.5.1.6.2.1,0,.2,0,.2.3v.8c0,.1-.5.4-1.2.4h-2.1c-.7,0-1.1-.3-1.2-.3v-.9c0-.2,0-.3.2-.3.4-.1,1.9-.5,1.9-.5h.1s0,0,0,0ZM16.4,13.2c0,.7-.7,1.2-1.1,1.2-.6,0-.9-.7-1-1.3,1.1-.1,1.8,0,2.1,0ZM12.3,20.1c-1.2,1.5-2.5,3.2-3.9,3.8-.3.1-.7.2-1,.2.2-.2.3-.4.5-.7.9-1.4,1.1-2.2,1.3-2.9.2-.8.4-1.5,1.4-2.7.2.3.4.5.6.8.4.4.8.8,1.3,1.2,0,.1-.2.2-.3.4ZM13.7,25.4h-1.9c.1-.3.4-.7,1-1.1.2.4.6.8.9,1.1ZM13.9,22.6c-.2,0-.3.1-.5.2,0-.6.5-1.3,1.2-2,.6.2,1.3.4,2,.5-1,.5-2,1-2.6,1.2ZM19.9,18.6c0,.6-.7,1.2-1.7,1.9-.3-.5-.8-1.2-1.5-2,.2,0,.4-.2.6-.5,1.4,0,2.5.3,2.6.6ZM17.8,15.7h-.3s-.5,1.1-.7,1.3c-.8,0-1.8,0-1.8,0-.4-.3-.8-.6-1.3-.8l-.5.9c1.6.9,2.9,2.2,3.7,3.3-2.1-.3-3.6-1.1-4.9-2.5-.9-1-.9-1.9-.7-2.6.3-.9,1.1-1.8,2-2,.2,1.1.9,2.1,2,2.1s1.9-.9,2-2.1c2.4.6,4.4,2.2,5.5,3.9-1.6-.9-3.5-1.5-5-1.5h0Z"/>
</svg>