<?xml version="1.0" encoding="UTF-8"?>
<svg id="pictograms" xmlns="http://www.w3.org/2000/svg" width="36" height="36" version="1.1" viewBox="0 0 36 36">
  <!-- Generator: Adobe Illustrator 29.6.1, SVG Export Plug-In . SVG Version: 2.1.1 Build 9)  -->
  <defs>
    <style>
      .st0 {
        fill: #014a5c;
      }
    </style>
  </defs>
  <path class="st0" d="M28.6,15.5l-.5.3c-.2,0-.4.2-.6.3l5-8.5-.9-.5-5.6,9.4c-.9-1.4-2.5-2.6-4.3-3.7.6-.6,1-1.3,1-2.1,0-.6-.3-1.1-.7-1.5-.5-.4-1.2-.5-1.9-.3-.9.2-1.7.9-2.2,1.8h-.2c-3.3-1.8-6.7-3.6-7.1-5.4h13v-1h-14c0-1.1.2-2.3.2-2.3l-.9.3c-.9.3-2.1,1.2-1.9,2.1,0,.4.4.8,1.5.8h.3c.4,1.6,1.2,3.6,2.6,5.1.8.9,1.8,1.6,2.8,2-2.4.9-4.6,2.8-5.2,4.6-.1.4-.2.7-.2,1-1.3-1.6-2.1-2.7-2.2-2.9-.3-.5-.9-.7-1.6-.6-.7.1-1.2.5-1.4,1.1,0,.3-.2.8.4,1.4.9.9,5.7,4.1,6.4,4.6.6.8,1.4,1.6,2.1,2.4-2.5,1.1-5.1,2.1-6.4,2.4-.8.2-1.4.6-1.5,1.2-.1.4,0,.8.3,1.1.3.3.9.5,1.5.5s.7,0,1.1-.1c.9-.2,3.7-1.5,7-3.1,3.2,3.5,7,6.4,9.7,7.5.3.1.6.2.9.2.5,0,1-.2,1.3-.4s.5-.7.5-1c0-.5-.5-.9-1.3-1.2-1.2-.5-4.2-2.4-6.8-4.4h0c-.4-.6.7-2.2,1.6-3.5,1.7-.9,3.3-1.7,4.8-2.5h0s0,0,0,0h0c.1,0,.3.1.5.1s.3,0,.5-.1c.4-.2.6-.5.8-.9,2.1-1.1,3.6-2,4.2-2.4.6-.4.7-1.1.4-1.6-.4-.6-1.3-.9-2.5-.2h0ZM8.4,4.3c-.2,0-.4,0-.4,0,0-.1.2-.3.5-.5,0,.2,0,.4,0,.6h-.1ZM4.5,16.2c0,0-.2-.2-.2-.3,0-.1.3-.3.6-.4,0,0,0,0,.2,0,.2,0,.3,0,.5.2.1.2,1,1.4,2.4,3.1-1.5-1-2.8-1.9-3.5-2.6ZM20.6,12.5c-.1,0-.2.1-.4.1-.5.1-.7-.1-.7-.2-.2-.3-.2-.8,0-1.2.5.2,1.1.6,1.5.9-.1.1-.3.2-.5.3ZM21.5,17.4c-.3-.3-.8-.7-1.5-1,0-.3,0-.6,0-.8.5.3,1,.5,1.4.8,1.1.6,2.2,1.2,2.8,1.9-.5.3-1.4.8-2.2,1.2.2-.8,0-1.5-.6-2h0ZM19,15.5c0,.1,0,.3,0,.5-.7-.2-1.5-.4-2.6-.4.5-.2,1.1-.4,1.8-.3.3,0,.6,0,.7.2h0ZM19.5,18c0-.2.1-.4.2-.6.5.3.9.6,1.2.8.4.4.3,1-.1,1.8,0,0,0,0-.1,0-.8.4-1.5.1-1.6,0-.2-.3.1-1.4.4-2.1h0ZM21.5,20.8c1-.5,2.4-1.2,3.2-1.6v.4c-1.1.6-2.3,1.2-3.6,1.9.1-.2.2-.4.4-.6ZM25.5,17.5l-.2.4c-.7-1-2-1.8-3.4-2.4-1.7-.9-2.9-1.6-3.2-2.5.3.4.7.7,1.3.7s.4,0,.6,0c0,0,.2,0,.3-.1,2.5,1.5,4.1,2.6,4.7,4.1ZM20.4,9.9c.4-.1.8,0,1,.1.2.2.3.4.3.7s0,.4-.1.5c-.6-.5-1.3-.9-1.9-1.1.2-.1.4-.2.6-.3h0ZM14.7,22.9c-.1,0-.3.1-.5.2-.7-.5-1.6-1.2-2.5-1.8l-.4-.3c1.1,0,2.3-.4,3.3-.9-.1.7-.2,1.6,0,2.8ZM6.9,28.1c-.8.2-1.4.1-1.6-.1,0,0,0-.1,0-.2,0-.1.2-.4.8-.5,2.9-.7,9.8-3.9,12.2-5.1l-.5-.9c-.6.3-1.4.7-2.3,1.1-.2-2,.2-2.8.7-3.4.4-.3.8-.6,1.1-.9l-.7-.7h0c-.1.1-.8.6-1,.8-1.6,1.2-4.1,2.4-5.2,1.3-.7-.7-.9-1.5-.6-2.4.7-2.1,4.1-4.3,6.9-4.6v-1h0c-1.7.1-3.2-.6-4.6-2-.7-.8-1.3-1.8-1.7-2.7,1.3,1.6,3.9,3,6.9,4.5l.4.2c-.2,1.1.1,1.9.7,2.6h0c-1.8,0-3.2.9-4,1.6-.1,0-.3,0-.4,0-1.3.3-1.5.8-1.6,1,0,0-.3.6.4.7s1.2,0,1.8-.5h0c0-.1.2-.2.3-.3,1.8-.3,3.1-.1,4.1.2,0,.2-.2.5-.2.7-.4,1.2-.9,2.3-.3,3,.3.4,1,.6,1.8.5-.2.3-.5.7-.7,1-5.4,2.7-11.1,5.5-12.4,5.8h0ZM25.6,32.3s0,0-.2.2c-.3.1-.7.2-1.1,0-2.5-1-6.1-3.8-9.1-7,.1,0,.2-.1.3-.2,3,2.7,7.8,5.9,9.4,6.5.6.2.7.4.7.4ZM17.5,25.8c-.4-.3-.7-.6-1-.9.6-.3,1.2-.6,1.8-.9-.4.6-.7,1.2-.8,1.8h0ZM30.2,16.5c-.4.3-1.7,1-3.4,2h0c0-.2,0-.5-.2-.7.6-.4,1.4-.8,1.9-1.1l.6-.3c.7-.4,1.1-.2,1.2-.1,0,0,0,.2-.1.3h0Z"/>
</svg>