<?xml version="1.0" encoding="UTF-8"?>
<svg id="pictograms" xmlns="http://www.w3.org/2000/svg" width="36" height="36" version="1.1" viewBox="0 0 36 36">
  <!-- Generator: Adobe Illustrator 29.6.1, SVG Export Plug-In . SVG Version: 2.1.1 Build 9)  -->
  <defs>
    <style>
      .st0 {
        fill: #014a5c;
      }
    </style>
  </defs>
  <path class="st0" d="M23.1,30.3h11.1l-1.6-2c.2-1.1.1-2-.4-2.9-.8-1.3-2.3-2.1-3.4-2.4-.1,0-.2,0-.4,0,.1-1.6.3-3.8-2.3-6.7,0,0,.1-.1.2-.2,1.6-1.8,1.9-4.2.7-6-1.2-2-3.8-2.8-7-2.2-.4-1.4-1.4-2.2-2.9-2.1-.7,0-1.2.4-1.6.9-.6.9-.4,2.3-.4,2.5v.3c0,0,.4,0,.4,0,.8.2,2.1,0,4.1-.5,3-.8,5.4-.2,6.5,1.6.9,1.5.7,3.4-.6,4.9,0,0-.1.1-.2.2h-.3c0-.1-.2-.2-.5-.3.1-.3.3-.6.5-.9.4-.6.5-1.4.1-2.1-.4-.7-1.2-1-2.5-.9v1c.9,0,1.4.1,1.6.4.2.3,0,.8-.1,1-.3.5-.5.9-.7,1.3-.8,0-1.8,0-3.1.1-.4,0-.7.1-1.1.2-.4-.6-.8-1.2-1.3-2h0l-.8.5h0c.6.9.5,1.3.3,1.8,0,.1,0,.3,0,.4-.7.4-1.3.9-1.9,1.4-.7-.8-.9-1.6-.9-2.5s.7-2.7,1.9-3.5c.4.1.8.2,1,.2,1,0,1.9-.5,2.2-1.4l.3-.7h-.8c-1.1,0-2,.3-2.8.8,0,0-.1-.2-.1-.3h-1c0,.3.1.6.3.9-1.3,1.1-2,2.6-2,4.1s.4,2.3,1.3,3.3c-.7,1-.9,2-.8,2.9,0,.5.3,1,.6,1.4l-5.1,3.8s-.9.7-1.8.7H2.2v.6c.1.3.5,2.5,1.9,2.5h3.5c1.4,0,2.6-1,2.7-1l6.1-5c.2.2.5.3.7.5.3.2.6.4.9.6-.4.3-.7.6-1.1.9-1.1,1-2,1.7-1.7,2.5h0l.3.5s.8,1.1,1.9,1.1.4,0,.6,0c1.1-.3,3.1-1.3,3.2-1.3l-.4-.9s-2.1,1-3.1,1.3c-.3.1-.6,0-.8-.2l3.7-1.8v-.4c-.2-.7-.6-1.3-1.1-1.8.5-.7.9-1.4.9-2.2,0-.5-.2-1-.6-1.5l1.7-1.4c2.6,3.1,4.1,3.4,5.8,3.7,0,1.5.3,2.7,1,3.5.8.9,1.9,1.4,3.4,1.5,0,.1.2.3.3.4h-8.9v1h0ZM16,8.5c0-.4,0-1,.3-1.4.2-.2.5-.4.8-.4,1.2-.1,1.6.7,1.8,1.4-1.6.4-2.5.5-2.9.4ZM17.5,17.3c.2.6.7,1.2,1.6,2.2l-.8.6c-.9-.7-1.5-1.2-2-1.7.4-.4.8-.7,1.3-1h0ZM15.6,19.2c.5.5,1.1,1,1.8,1.6l-1.9,1.4c-.2-.3-.4-.6-.4-1-.1-.8.2-1.5.5-2h0ZM9.6,28.5s-1,.8-2.1.8h-3.5c-.3,0-.5-.5-.7-1.1h4.4c1.2,0,2.4-.8,2.4-.9l5.2-3.8c0,0,.1.1.2.2l-5.9,4.9h0ZM16.3,23s-.1,0-.1-.1l2-1.5s0,0,0,0l-1.9,1.6ZM17.6,23.9c-.1,0-.3-.2-.4-.3l1.8-1.5c.2.3.3.6.3.9,0,.5-.3,1-.7,1.5-.3-.2-.7-.5-1-.7ZM16.1,28.3c.2-.3.9-.9,1.4-1.3.4-.3.8-.7,1.2-1.1.3.3.5.5.6.9l-3.2,1.5ZM19.8,18.9c-1-1-1.4-1.6-1.5-2.1.2,0,.3-.1.5-.2.5.7,1,1.4,1.4,2,0,0-.4.3-.4.3ZM21.1,18c-.4-.5-.8-1.1-1.2-1.7.2,0,.4-.1.6-.1.8-.1,1.4-.2,1.9-.2s.5,0,.7,0c0,.2,0,.4,0,.5,0,0-1.9,1.4-1.9,1.4ZM27.4,22.7c-1.5-.3-2.8-.6-5.1-3.3l1.8-1.5s.6-.5,1.2-1c2.3,2.6,2.2,4.4,2.1,5.8h0ZM31.6,27.8c-1.1-.1-2-.5-2.5-1.2-.5-.6-.8-1.6-.8-2.7,0,0,.1,0,.2,0,.9.2,2.2.8,2.8,1.9.3.6.4,1.2.3,2Z"/>
</svg>