<?xml version="1.0" encoding="UTF-8"?>
<svg id="pictograms" xmlns="http://www.w3.org/2000/svg" width="36" height="36" version="1.1" viewBox="0 0 36 36">
  <!-- Generator: Adobe Illustrator 29.6.1, SVG Export Plug-In . SVG Version: 2.1.1 Build 9)  -->
  <defs>
    <style>
      .st0 {
        fill: #014a5c;
      }
    </style>
  </defs>
  <path class="st0" d="M19.5,19.6c0,.3.2.6.3.9l-5.4,7.3.8.6,5.3-7.1c0,0,.1,0,.2,0,.2,0,.8,0,1.2-2l-.9-.4-.5.6s0-.1,0-.2c-.2-.9.1-1.6,1.1-2.3,1.1-.8,2.8-1.4,4.3-1.5,0,.5,0,1,.4,1.4.2.3.5.5.9.6.5,0,1.4-.1,1.8-1.9v-.4c0,0-.2-.2-.2-.2-.4-.2-1-.4-1.6-.4.1-.2.3-.4.5-.6.1,0,.3-.1.4,0,.3,0,.3.3.2.5h.5c0,0,.5.2.5.2.1-.5,0-1.4-1-1.6-.4-.1-.8,0-1.2.2-.4.3-.8.8-1,1.4-1.8,0-3.8.7-5.1,1.7-1.2.9-1.7,2.1-1.4,3.4h0ZM27.8,15.7c-.1.4-.3.8-.6.8,0,0-.1,0-.2-.1-.1-.2-.2-.5-.2-.8.4,0,.7,0,1,.2h0Z"/>
  <path class="st0" d="M32.9,16.1c0-.2-.3-.6-.9-.5h-.5v2.3c-.4.6-.8,1.4-1.3,1.9-.4-.7-.5-2.3-.5-3.3h-1c-.4,3.2-6.5,8.8-11,12.8l-.3.3c.2-1.1.5-2.1,2.1-3.2,1.1-.7,1.7-1.9,2.2-3.1.5-1.2,1-2.3,2-2.7.8-.3,1.4-.8,1.6-1.5.5-1.3-.1-2.6-.2-2.8l-.9.4c.2.4.4,1.2.2,1.9-.2.4-.5.8-1.1,1-1.4.5-2,1.9-2.5,3.2-.5,1.1-.9,2.1-1.8,2.6-2.2,1.3-2.4,2.8-2.6,4.1,0,.4-.1.7-.2,1.1-1.7,1.5-2.8,2.6-3.3,3.4l.8.5c.4-.7,1.8-2,3.3-3.3l1.4-1.3c2-1.8,4.1-3.7,6-5.6.2.5.5,1.1.8,1.6-.7.8-2.1,2.6-2.5,4.5h0c-.3,0-.6-.2-.9-.3-.9-.4-1.7-.8-2.4-1.1l-.4.9c.7.3,7.7,3.7,9.6,4.2,0,0,0,0,0,0,.1,0,.2,0,.3,0,.7.2,1.2.3,1.7.3s.8,0,1-.2l-.3-.9s-1.4.2-2.4-.2c-.2-.1-2.8-1.5-4.7-2.6.9-.8,3.6-3.1,4.6-4.8h0v-.2c0-2-1.5-4.5-1.5-4.6h-.2c.7-.7,1.3-1.6,1.7-2.4.2.9.5,1.8,1,2.2l.3.2.3-.3c.2-.2.6-.6,1-1.1v10.7h1v-12.4c.4-.8.6-1.5.4-2ZM28,25.5c-.8,1.3-2.8,3.1-3.9,4,.7-1.6,1.8-2.9,2.1-3.2l.4-.4-.5-.4c-.2-.2-.8-1.4-1-2,.6-.6,1.1-1.2,1.6-1.8.3.6,1.2,2.3,1.3,3.7h0Z"/>
  <path class="st0" d="M25.7,8.1h-1s0,.3-.4.5c-.5.3-10.1,6.2-16,9.8.5-.5.9-1,1.3-1.4,5.6-3.5,13.1-8.2,13.4-8.4,1.1-.7,1-1.5,1-1.6l-1,.2s0,.2-.5.6c-.3.2-6.3,3.9-11.5,7.2.7-1.4.8-2.6.9-3.8,0-.1,0-.3,0-.5,1.1-1.2,2.7-2.6,4.7-3.9,1-.7,1.7-1.4,2-2.2h0c1.1,0,1.9-.3,2.4-.9.6-.8.2-1.8.2-1.8v-.2c0,0-.2,0-.2,0-.2,0-1.7-.8-2.8,0-.5.3-.7.9-.5,1.5.2.6,0,1.2-.4,1.8v-.3c-.2-.2-.6-.7-1.6-.5,0,0,0,0,0,0-.2,0-.4,0-.6,0,.8-.2,1.6-.3,2.5-.3v-1c-2.5,0-4.6.7-6.4,2.1-1,.3-1.7.7-1.7.7h-.2c0,0-.6,1.9-.6,1.9l.9.4c.6-.8,1.3-1.6,2.1-2.2.5-.2,1.1-.3,1.8-.5-1.1.9-2.1,2.4-2.4,4.4,0,.2,0,.4,0,.6-1.8,2-2.5,3.4-2.5,3.6v.3c-.1,0,0,.2,0,.2.4.6-2.1,3.3-5.3,5.6l.6.8s.9-.6,2.2-1.4c-1.1,1-2,1.8-2.1,1.9l.6.8c.2-.1,19.6-12.1,20.3-12.5.7-.4.9-1.1.9-1.4h0ZM18.8,2.3c.1-.1.3-.2.5-.2.4,0,.7.1,1,.2,0,.2,0,.5-.1.7-.2.3-.7.5-1.4.5,0-.3,0-.5-.1-.8,0-.1,0-.3.1-.4h0ZM15,5.4c.3-.2.5-.2.7-.3.3,0,.6,0,.9.2h.3c-.2.3-.5.4-.7.6-1.6,1-2.9,2.1-3.9,3.1.6-2.3,2.2-3.3,2.8-3.6ZM9.5,14c.2-.3.6-1.1,1.4-2-.1,1.2-.4,2.3-1.3,3.6-.1.2-.3.4-.5.7-.2.1-.4.2-.6.4.8-1,1.3-1.9,1.1-2.6Z"/>
</svg>