<?xml version="1.0" encoding="UTF-8"?>
<svg id="pictograms" xmlns="http://www.w3.org/2000/svg" width="36" height="36" version="1.1" viewBox="0 0 36 36">
  <!-- Generator: Adobe Illustrator 29.6.1, SVG Export Plug-In . SVG Version: 2.1.1 Build 9)  -->
  <defs>
    <style>
      .st0 {
        fill: #014a5c;
      }
    </style>
  </defs>
  <path class="st0" d="M31,23.8c-.2-3.3-1.8-9.1-3.5-10.9l-.7.7c1.2,1.2,2.5,5.2,3,8.5-1.5-2.1-3-4.6-3.6-6.6,0-.1.1-.2.2-.3l.5-.8h-1.4c.8-.2,1.4-.9,1.6-1.4h-.2c.2,0,.2-.1.2-.1.5,0,.9-.6,1-1.4.1-1-.3-2.2-1.5-2.5-.9-.3-1.8,0-2.5.6-.1.1-.2.2-.3.3-1.6-1.5-3-1.1-3.6-.9-.9.4-1.5,1.3-1.5,2.2-.5-.6-.7-1.1-.7-1.6,0-.1,0-.5.3-.5v-1c-.8,0-1.3.6-1.3,1.4,0,1.1.6,2.4,2.2,3.2-2.3.3-3.7,1.6-4.1,3.1-.3,1,0,2,.6,2.4-1.1,2.1-1.7,3.3-2.2,3.9-1.7.6-3.5,1-5.4,1.3.2-.1.4-.2.5-.4,0,0,3.6-2.6,5.4-2.3v-1c-1.9-.1-3.7.8-5.8,2.4h-.2c-.6.5-.9.8-1.9.9-.8,0-1.3.7-1.8,1.2-.3,0-.5,0-.8.2l-1,.9.5.8,1.3-.5c.1-.1.2-.2.4-.4.7.1,1.7.3,2.8-.8,1.5-.2,3-.5,4.4-.9-.4.6-.7,1.4-.8,1.9-.2.1-.4.3-.5.5,0,.2-.6,1.1-.6,1.1l.9.5s2-3.1,17.2-3.2v-1c-7.2,0-11.5.8-14.1,1.6.3-.3.5-.6.6-.9.2-.5,1.1-1.3,2-2,3.9-1.7,6.9-3.9,8.6-5.7.9,2.6,2.9,5.6,4.5,7.8h0c0,2.2,0,2.8,0,2.8h1c0-.2,0-.3,0-.3.1,0,.8.3,1.3.7l.7-.7s-1-1.2-2.2-2.9h0ZM5.8,24.5c.2-.2.5-.4.7-.4.2,0,.3,0,.5,0-.4.4-.8.5-1.2.5ZM14.2,23.2c-.1.2-.2.4-.3.5-.1.3-.3.5-.5.7-.2.2-.5.4-.8.5.2-.5.5-1,.9-1.2.2,0,.4-.2.7-.6ZM25,10.2c.4-.4.9-.5,1.5-.4.5.2.7.6.8,1,.1.5,0,.9-.1,1,0,0-1.1.2-2.5-1.3,0-.1.2-.2.3-.3h0ZM24.3,11.5c.7.7,1.4,1,1.9,1.1-.2.3-.6.8-1.1.7-.4-.1-.7-.4-.8-.8,0-.3,0-.7,0-1h0ZM20.9,18.8c.7-.9.9-2,.6-2.9-.4-1-1.3-1.6-2.6-1.6h0v1h0c.8,0,1.4.3,1.6.9.2.6,0,1.7-1,2.5-.3.2-.7.5-1.2.9-.7.5-1.4,1-2,1.5-.4.1-.7.3-1.1.4.4-.8,1-1.8,1.6-3.1.3,0,.5-.2.7-.4.4-.5.4-1.6.1-1.9l-.5-.6-.4.9c-.1.3-.3.6-.4.8-.1-.2-.2-.7,0-1.2.4-1.3,1.8-2.8,4.7-2.4l.2-1.3c-.8-.2-1.3-.6-1.3-1.2,0-.6.3-1.1.9-1.3.8-.3,1.8,0,2.7.9-.3.7-.3,1.4-.2,2.1.2.8.7,1.4,1.5,1.6,0,0,.1,0,.2,0v.6c.1,0,.2.2.2.2-.9,1.1-2.4,2.4-4.3,3.6h0ZM31.1,25.6h0s0,0,0,0h0Z"/>
</svg>