<?xml version="1.0" encoding="UTF-8"?>
<svg id="pictograms" xmlns="http://www.w3.org/2000/svg" width="36" height="36" version="1.1" viewBox="0 0 36 36">
  <!-- Generator: Adobe Illustrator 29.6.1, SVG Export Plug-In . SVG Version: 2.1.1 Build 9)  -->
  <defs>
    <style>
      .st0 {
        fill: #014a5c;
      }
    </style>
  </defs>
  <path class="st0" d="M33.2,25.9c0-.8-.3-1.6-.9-2.1-.5-3.7-3.3-6-8.1-6.9-.1-.2-.3-.5-.4-.8-.1-.4-.4-.8-.8-.9-.6-.3-1.4-.2-2,0-1.5-.9-8.1-5.4-9.5-6.3-.4-1.3-.7-2.3-1.5-2.7-1.5-.7-2.8-.2-3.5,0-.2,0-.3.1-.4.2h0c-.8,0-1.7.4-2.4.7-.2,0-.5.2-.6.2v1c1,0,2.6,1,4.4,2.2,1.2,2.3,3.5,5.2,6,7.8h0c0,.3-.2,1.8,2,3.8l.7-.8c-.9-.7-1.3-1.4-1.5-1.9.4.4.9.9,1.3,1.3,1.8,4.2,5.6,8.1,9.1,8.1s.5,0,.7,0c.4,0,.8-.2,1.1-.3-.4.3-1,.5-1.6.7-1.3.2-2.7,0-3.5-.8-1.1-1-7.7-7.5-10.9-10.5-1.2-1.3-1.2-1.6-.8-2l-.7-.7c-1.2,1.3,0,2.6.9,3.4,3.2,3,9.3,9,10.2,9.8,0,0,0,0,0,0-.4,0-.8,0-1-.2-.4-.3-6.7-6.3-10.8-10.2l-.7.7c1.1,1,10.4,9.9,10.9,10.3.3.3.9.4,1.4.4s.3,0,.4,0c.2,0,.5-.1.7-.3.8.7,1.9,1.1,3.2,1.1s.7,0,1.1,0c1.1-.2,2.1-.7,2.6-1.4l.6-.8c-.2-.2-.7-1.7-.3-2.8.3-.8.9-1.2,2-1.2.5,0,.9.1,1.3.5.3.3.6.8.6,1.3-.2.2-.8.6-1.4.6-1.5,0-2-1-2-1v1c-.1,1.2.2,2.2,1,2.8.4.3.8.4,1.2.4s.5,0,.8-.1c1.9-.8,1.4-3.4,1.4-3.5h0ZM22.6,16c.1,0,.2.1.2.3,0,0,0,0,0,.1-.2-.2-.4-.3-.6-.5.1,0,.2,0,.3,0h0ZM9.6,7.1c.3.1.5.5.6,1-.9-.5-1.6-.9-2.3-1.2.5,0,1.1,0,1.7.2ZM4.8,7.7c.6-.2,1.4-.4,1.7-.2,0,0,.1,0,.1.3,0,.3,0,.6.2,1-.7-.4-1.4-.8-2-1.1h0ZM7.7,7.8c.9.4,1.9,1,3.1,1.7.2.8.5,1.6.9,2.5-1.1-.8-2.3-1.6-3.3-2.3-.3-.7-.5-1.3-.6-1.8h0ZM30.3,22.9c-1.5,0-2.6.8-3,2.1-.3,1.2-.1,2.1-.1,2.1-.2.1-.7.5-1.5.6-2.5.4-5.5-2-7.5-5.1,1.5,1.3,3,2.5,4.2,3.3l.6.4.2-.6c0,0,.5-1.7-.6-2.7-.9-.9-3.5-2.6-3.5-2.6-.8-.7-1.7-.5-2.2-.3,0-.2-.2-.4-.3-.6-.3-.8-.7-1.3-1.3-1.5-.3-.1-.6-.2-.8-.2-2-2.1-3.8-4.2-5.1-6.1.7.5,1.4,1,2.1,1.5,2.2,1.6,4.5,3.2,6.5,4.4,1.4.8,2.6,1.9,2.8,2.4l.9-.3c-.3-.9-1.9-2.2-3.2-2.9-1.5-.8-3.1-2-4.8-3.1-.9-1-1.4-2.1-1.7-3.2,1.1.7,7.1,4.8,8.7,5.8,1.5.9,2.5,1.9,3.2,2.7.5.5.9,1,1.4,1.3,2,1.4,3.3,2.2,3.3,2.2l.5.3.2-.5c0,0,.3-.7-.6-1.5l-.7-.5c-1.7-1.2-2.6-1.8-3.2-2.2,3.5.8,5.6,2.5,6.3,5-.3,0-.6-.1-.9-.1h0ZM17.8,21c.2,0,.5,0,.8.3,0,0,2.6,1.8,3.5,2.6.3.2.4.6.4.9-1.4-1-3-2.3-4.6-3.8ZM31.4,28.4c-.4.1-.7,0-1-.1-.3-.2-.5-.6-.6-1.1.4.1.9.1,1.4,0,.4,0,.8-.2,1.1-.4,0,.6-.2,1.3-.8,1.5h0Z"/>
</svg>