<?xml version="1.0" encoding="UTF-8"?>
<svg id="pictograms" xmlns="http://www.w3.org/2000/svg" width="36" height="36" version="1.1" viewBox="0 0 36 36">
  <!-- Generator: Adobe Illustrator 29.6.1, SVG Export Plug-In . SVG Version: 2.1.1 Build 9)  -->
  <defs>
    <style>
      .st0 {
        fill: #014a5c;
      }
    </style>
  </defs>
  <path class="st0" d="M32.8,20.1c0,.5-1.3,1.4-3.1,2.1-.3.1-2,.8-2,.8v-12.8c.6-.4.8-1.1.8-1.5,0-.4-.1-.8-.5-1.1-.4-.4-.9-.2-.9-.2-2.4,1.3-5.4,1.8-7.3,1.2-.2,0-.4-.1-.5-.2,0,0,0-.1,0-.2-.1-.4-.5-.8-1.3-1l-1-.2.5.9c.2.4.6.8,1,1.1,0,.6-.7,1.8-.7,1.8,0,0-.7,1.2-.9,1.6-1.2-.1-4.4-1.1-4.6-2.7,0-.2-.1-1.1.5-1.7.5-.5,1.3-.7,2.3-.7-.4.9-.8,1.6-.9,1.9l.9.4c.2-.3.6-1.4,1.2-2.5.6-1.3,1.4-3,1.5-3.2.7-1.2,1.5-1.4,2-1.2.4.2.8.9.4,1.9-.2.5-.4.8-.7.9-.4.2-.9,0-.9,0l-.5.9c0,0,.9.4,1.7,0,.6-.2,1-.7,1.3-1.4.6-1.6,0-2.8-.9-3.2-.9-.4-2.3-.1-3.3,1.6-.1.2-.6,1.2-1.4,2.9-1.6-.1-2.8.2-3.5,1-.6.6-.9,1.6-.8,2.5.3,2.1,3.6,3.2,5.1,3.4,0,.2-.2.3-.3.5-1.5-.4-2.9-.7-3.5-.8h0c-.9-.1-1.6.5-1.8,1.4-.1.5,0,1.1.4,1.7-1,3.5-1.4,6.7-1.6,8.6,0,.4,0,.8,0,1.2-.7,1.1-2.4,3.5-2.4,3.5,0,0,.5.6,2.2.8l-6.2,3.8.4.9c.8-.3,19.7-6.9,21.3-7.5,1.3-.5,2.3-1.8,2.6-3.3,1.2-.5,2.2-.9,2.6-1,.6-.2,3.6-1.5,3.7-3h-1c0,0,0,0,0,0ZM19.3,9.6c0,0,.1,0,.2,0,1.9.6,4.6.3,7-.7-.2.3-.4.6-.4,1-2.4,2.2-5.9,1.4-7.2,1,.2-.4.4-.9.4-1.3ZM17.4,13.6c.6,0,1.2-.2,1.4-.7.1-.4,0-.8-.2-1.1.8.2,2,.6,3.4.6s3.3-.4,4.7-1.8v12.1c0,.2,0,.5-.1.7-.7.3-1.4.5-2.2.9-.4,0-2.1-.4-3.2-1.5.7-3.7,1-6.5-.2-7.2-.6-.4-2.3-.9-4-1.4.1-.2.2-.5.4-.7h0ZM14.3,17c-1-.3-1.6-.7-2-1,.2-.6.4-1.2.6-1.7.6.1,1.6.4,2.8.6-.3.7-.7,1.4-1.1,2.2,0,0-.1,0-.2,0h0ZM16.6,15.2c1.4.4,2.8.8,3.5,1.1-.4.3-.8.7-1,1.2-1,.2-2.3.1-3.6-.1.4-.8.8-1.5,1.1-2.1h0ZM19.9,18.3c.3-.1.6-.2.8-.4,0,0,.1-.1.1-.1,0,1.1-.2,2.6-.4,3.9-.5-1-.8-2.3-.5-3.4ZM21,24.1s0,0,0-.1c.6.5,1.3.8,1.8,1-.7.3-1.5.6-2.2.9,0-.4.2-1,.3-1.7h0ZM12,17c.5.4,1.2.7,2.1,1h0c-1,2-2.2,4.1-3.4,6.2.2-1.6.5-4.3,1.3-7.2h0ZM8.7,29.1c.4-.5.7-1,1.1-1.6.1.4.3.7.5,1,.5.6,1.2.9,2.3,1h-1.6c-.4,0-1.5,0-2.3-.3h0ZM24.5,26.5c-1.1.5-10.9,3.9-16.8,5.9,0,0,5-3,5-3v-1c-.8,0-1.4-.3-1.7-.6-.3-.3-.4-.9-.5-1.6,1.6-2.6,3.2-5.5,4.5-8,1.2.2,2.6.4,3.8.3-.2,1.5.4,3.4,1.3,4.6,0,.3-.1.5-.1.8-.1.7-.3,1.4-.3,1.9l-5.5,2.6.4.9c1.1-.4,5.2-2.1,9-3.5,1-.4,1.9-.7,2.8-1.1-.3.8-.9,1.6-1.8,1.9h0Z"/>
</svg>