<?xml version="1.0" encoding="UTF-8"?>
<svg id="pictograms" xmlns="http://www.w3.org/2000/svg" width="36" height="36" version="1.1" viewBox="0 0 36 36">
  <!-- Generator: Adobe Illustrator 29.6.1, SVG Export Plug-In . SVG Version: 2.1.1 Build 9)  -->
  <defs>
    <style>
      .st0 {
        fill: #014a5c;
      }
    </style>
  </defs>
  <path class="st0" d="M33.4,14.2c-.3-1.3-1.2-2.1-2.4-2.2-.3,0-.5.2-1.1.7-.9.8-2.5,2.2-5.1,3.4-.7-1.2-2.7-4.3-5.8-3.9-.8,0-1.4.3-1.9.6.1-.4.2-.8.3-1.2,2.4-.8,4.8-1.9,5.7-2.8.2-.2.5-.5.7-.7,1,0,1.8,0,2.5,0h.3l2-2.9h-1.1c0,0-2,.3-4.1,1.9-2.1,0-5.2.2-8,.7,0,0,0,0,0,0-.4-1.7-1.7-2.7-3.1-2.4-2.7.4-2.9,2-2.8,2.9,0,.5.2,1,.5,1.5-.7.5-1.2,1.1-1.5,1.7-1,2.3.3,3.7,2.1,4.8-1.3,0-3,.4-3.8,1.3-1.9,2.2.9,6.5,1.8,7.7-1.4.8-2.8,1.5-3.7,1.8-1.6.4-2.4,1-2.5,1.7,0,.5.2,1.1,1.7,1.7.6.2,1.2.3,2,.3,2,0,4.3-.7,4.9-1,1-.5,18.5-9.1,20.9-10.8,1.6-1.2,2-3.3,1.6-4.8ZM26.4,6.5l-.4.5c-.2,0-.5,0-.8,0,.4-.2.8-.4,1.2-.5ZM19.1,13.1c2.5-.3,4.2,2.4,4.8,3.4l-2.6,1.4c-.6-.3-1.4-.9-2.1-1.6h0c0-1-.7-1.7-1.4-1.8s-1,.8.4,2.2c0,.2-.1.5-.3.7-.6-.8-1.2-1.6-1.9-2.4,0,0,0,0,.1-.1.3-.4,1.3-1.5,3-1.7h0ZM18.5,18.3c.2-.3.4-.5.5-.8.5.4.9.7,1.3,1l-1.3.7c-.1-.3-.3-.5-.5-.8h0ZM18.7,20.7c-.3.5-.7.9-1.1.9-.3,0-.6,0-.9-.2l2-1c0,.1,0,.2,0,.3h0ZM15,10.8c.4-.6.6-1.3.6-2.1,2.2-.4,4.6-.6,6.7-.7-.8.8-2.8,1.7-4.9,2.4,0,0,0-.2,0-.2l-.2-.8-.6.5s-.8.6-1.6,1c0,0,0,0,0-.1ZM16.3,11.8c-.2,1-.7,1.9-1,2.4-.6-.7-1.3-1.4-1.9-2.1.3-.1.6-.3,1-.5v.6c.7,0,1.3-.2,2-.4ZM14.2,10.2c-.5.7-1.4.9-1.8,1-.2-.1-.7-.6-1.1-1.2.9-.5,2-.8,3.2-1.1,0,.5-.1.9-.4,1.3ZM10.6,7.7c.1-1.2,2.1-1.4,2.2-1.4.8,0,1.4.7,1.7,1.7,0,0,0,0,0,0-1.3.3-2.6.7-3.6,1.3-.2-.5-.4-1.1-.4-1.6h0ZM9.5,11.9c.2-.5.6-.9,1.1-1.3.5.8,1.1,1.4,1.6,1.6,1.9,2.1,3.9,4.4,5.1,6.1-.1.1-.2.2-.4.4-.8-.8-2.1-1.4-3.4-2-3-1.4-5-2.5-4-4.7h0ZM7.6,18.2c.9-1.1,3.9-1.1,5-1,.1,0,.3.1.4.2,1.2.5,2.3,1.1,2.9,1.7-.6.3-1.4.6-2.3.8-.6.1-1.1.1-1.6.1-.8-.7-1.7-1.2-2.9-1h0v.7c0,0,0,.3,0,.3,0,0,.1,0,.2.1.4.3,1.2.7,2.4.9.6.6,1,1.3,1.2,1.6-.9.6-2.1,1.4-3.3,2.1-1.1-1.5-3.2-5.1-1.9-6.5h0ZM31.3,18.1c-2.3,1.7-19.7,10.2-20.7,10.8-.8.4-4.2,1.3-6,.7-.9-.3-1.1-.6-1.1-.7,0,0,.3-.5,1.7-.8,2.8-.7,9.4-5.3,9.6-5.5l-.6-.8s-.2.2-.6.4c-.1-.3-.4-.6-.7-1,.3,0,.6,0,.9-.1,1.8-.3,3.1-1,4-1.9.1.2.2.3.3.5l-3.3,1.8.5.5s.9.9,2,.9.2,0,.3,0c.7-.1,1.4-.6,1.9-1.4.2-.3.1-.7-.1-1.2l5.8-3h0c2.7-1.3,4.4-2.8,5.3-3.6.2-.2.4-.3.5-.4,1,.2,1.3,1,1.4,1.5.3,1.1,0,2.8-1.2,3.7h0Z"/>
</svg>