<?xml version="1.0" encoding="UTF-8"?>
<svg id="pictograms" xmlns="http://www.w3.org/2000/svg" width="36" height="36" version="1.1" viewBox="0 0 36 36">
  <!-- Generator: Adobe Illustrator 29.6.1, SVG Export Plug-In . SVG Version: 2.1.1 Build 9)  -->
  <defs>
    <style>
      .st0 {
        fill: #014a5c;
      }
    </style>
  </defs>
  <path class="st0" d="M33.3,8.2c-.4-.5-.9-.8-1.6-.8-.8,0-1.9.3-2.6.9-.8-.5-1.9-.9-3.4-.9h-10.9c-1-.4-1.7-.7-2.2-.7-1.6,0-2.2.8-2.3.9l-.6.8h4.8c.2.1.5.2.8.3,1.3.6,2.8,1.2,4.3,1.7-1,.9-1.4,2.1-1.3,3.5,0,.3,0,.6.1.9-2.1.7-3.5,2.9-4.9,4.9-.5.7-1,1.4-1.5,2.1-1,.3-1.9.5-2.7.6h-.2l-.5.4,1.1-1.5-.8-.6c-1.6,1.9-4.2,5.2-4.3,5.3l.7.7,1-.8c2.8.2,4.7-1.3,6.2-3.3,2.4-.9,5.2-2.5,7.5-4.2h0c-.5.6-1,1.3-1.3,2.3-.5,1.2-.6,2.7-.5,4-1.1.9-2.1,1.7-2.5,2.6h-1.6s0,.9,0,.9H2.8v1h19.4l.2-1s-2.4-.9-2.8-3.1c0,0,0,0,.1-.1,1.7-1.2,3.6-2.6,4.6-4.6,1-1.9.4-3.9,0-5.3,0-.2,0-.3-.1-.4,4.9,1.3,7.1-1.1,8.3-2.4h0l-.8-.7h0c-.6.6-1.5.9-2,.6-.6-.3-.8-1.1-.6-2.1,0-.2.1-.4.2-.5,0,0,0,0,0,0,1.1.7,2.2,1.4,4,.8h.3c0,0,0-.4,0-.4.1-.6,0-1.3-.3-1.8h0ZM7.8,24.9l1.9-1.5c.4,0,.8-.1,1.2-.2-.9.9-1.9,1.5-3.1,1.7ZM13.9,21.1c.2-.3.4-.6.6-.8,1.4-2,2.6-3.9,4.4-4.5.2.7.5,1.3.9,1.9-1.7,1.3-3.8,2.6-5.8,3.5h0ZM19.5,27.3h-2.3c.3-.5.9-1,1.6-1.5.2.5.4,1.1.8,1.5h0ZM23.5,20c-.9,1.7-2.5,3-4,4.1,0-1,.1-2,.5-2.9.3-.9.8-1.6,1.2-2,0,0,0,0,0,0,.5.1,1.1.1,1.8-.8l.3-.6-.6-.2c-.5,0-1.1,0-1.6.3h0c.9-.8,1.6-1.5,2.2-2.2,0,0,0,0,.1-.1.4,1.4.8,2.9,0,4.4h0ZM29.2,13.1c.2,0,.4.1.5.2-1.2.7-2.8,1.1-5.4.4.1-.4.2-.9.1-1.2v-.5c-.1,0-.7.1-.7.1-1,.4-1,1.3-.8,2.2-.1.2-.3.5-.5.7-.5.7-1.2,1.3-2,2-.5-1-1-2.4-1-3.3,0-1.2.4-2.3,1.4-2.9,0,0,.2-.1.2-.2,1.2.2,2.3.2,3.2-.2l1-.4-1-.5c-1-.5-2.3-.4-3.4,0-1.2-.3-2.5-.8-3.6-1.2h8.6c1.1,0,2,.3,2.7.7-.2.3-.3.6-.4.9-.4,2.2.6,3,1.1,3.2h0ZM30.1,8.9c.5-.3,1.1-.5,1.6-.5.4,0,.7.2.9.4.1.2.2.4.2.7-1.1.3-1.8,0-2.7-.6Z"/>
</svg>